<svg width="25" height="25" viewBox="0 0 25 25" fill="none" xmlns="http://www.w3.org/2000/svg">
<path d="M5.44225 15.5671C5.44225 16.9547 4.3087 18.0882 2.92108 18.0882C1.53345 18.0882 0.399902 16.9547 0.399902 15.5671C0.399902 14.1794 1.53345 13.0459 2.92108 13.0459H5.44225V15.5671Z" fill="black"/>
<path d="M6.7124 15.5671C6.7124 14.1794 7.84595 13.0459 9.23358 13.0459C10.6212 13.0459 11.7547 14.1794 11.7547 15.5671V21.8798C11.7547 23.2674 10.6212 24.4009 9.23358 24.4009C7.84595 24.4009 6.7124 23.2674 6.7124 21.8798V15.5671Z" fill="black"/>
<path d="M9.23358 5.44274C7.84595 5.44274 6.7124 4.30919 6.7124 2.92156C6.7124 1.53394 7.84595 0.400391 9.23358 0.400391C10.6212 0.400391 11.7547 1.53394 11.7547 2.92156V5.44274H9.23358Z" fill="black"/>
<path d="M9.23378 6.71289C10.6214 6.71289 11.755 7.84644 11.755 9.23406C11.755 10.6217 10.6214 11.7552 9.23378 11.7552H2.92108C1.53345 11.7552 0.399902 10.6217 0.399902 9.23406C0.399902 7.84644 1.53345 6.71289 2.92108 6.71289H9.23378Z" fill="black"/>
<path d="M19.3574 9.23406C19.3574 7.84644 20.491 6.71289 21.8786 6.71289C23.2662 6.71289 24.3998 7.84644 24.3998 9.23406C24.3998 10.6217 23.2662 11.7552 21.8786 11.7552H19.3574V9.23406Z" fill="black"/>
<path d="M18.0873 9.23427C18.0873 10.6219 16.9537 11.7554 15.5661 11.7554C14.1785 11.7554 13.0449 10.6219 13.0449 9.23427V2.92156C13.0449 1.53394 14.1785 0.400391 15.5661 0.400391C16.9537 0.400391 18.0873 1.53394 18.0873 2.92156V9.23427Z" fill="black"/>
<path d="M15.5661 19.3584C16.9537 19.3584 18.0873 20.4919 18.0873 21.8796C18.0873 23.2672 16.9537 24.4007 15.5661 24.4007C14.1785 24.4007 13.0449 23.2672 13.0449 21.8796V19.3584H15.5661Z" fill="black"/>
<path d="M15.5661 18.0882C14.1785 18.0882 13.0449 16.9547 13.0449 15.5671C13.0449 14.1794 14.1785 13.0459 15.5661 13.0459H21.8788C23.2664 13.0459 24.4 14.1794 24.4 15.5671C24.4 16.9547 23.2664 18.0882 21.8788 18.0882H15.5661Z" fill="black"/>
</svg>
